/* XPM */
static char *d00629fc7d104fe2c976a655be0ea5cfLmWTPKIjmFXS6bea[] = {
/* columns rows colors chars-per-pixel */
"64 64 256 2 ",
"   c #040302",
".  c #0D0402",
"X  c #0B0A04",
"o  c #0C0C0C",
"O  c #040A05",
"+  c #130501",
"@  c #1B0300",
"#  c #150B03",
"$  c #1B0D04",
"%  c #140B0A",
"&  c #1A0E0C",
"*  c #091309",
"=  c #1B1304",
"-  c #1C130C",
";  c #161607",
":  c #151413",
">  c #1C1312",
",  c #1A1919",
"<  c #110E13",
"1  c #230D03",
"2  c #290A03",
"3  c #340C02",
"4  c #231304",
"5  c #2C1303",
"6  c #23140B",
"7  c #2C140B",
"8  c #231A0C",
"9  c #2B1A0C",
"0  c #261B06",
"q  c #3C1905",
"w  c #33150C",
"e  c #341C0C",
"r  c #3B1C0C",
"t  c #371406",
"y  c #221513",
"u  c #241B13",
"i  c #2B1C13",
"p  c #251C1A",
"a  c #2A1D1B",
"s  c #291615",
"d  c #341D13",
"f  c #381D16",
"g  c #250F11",
"h  c #1B2018",
"j  c #292A05",
"k  c #2D2B0B",
"l  c #27240A",
"z  c #332C0D",
"x  c #38290C",
"c  c #39320D",
"v  c #34320B",
"b  c #2B2314",
"n  c #2E2B13",
"m  c #2C221B",
"M  c #26241A",
"N  c #342414",
"B  c #3C2314",
"V  c #332D12",
"C  c #3A2C13",
"Z  c #33241C",
"A  c #332C1B",
"S  c #3C2B1B",
"D  c #3B241B",
"F  c #3C3311",
"G  c #383317",
"H  c #2E300B",
"J  c #1C1E21",
"K  c #2A2624",
"L  c #332522",
"P  c #352B23",
"I  c #3B2C23",
"U  c #392A27",
"Y  c #3C3324",
"T  c #3D332B",
"R  c #39352D",
"E  c #3C3634",
"W  c #2C302D",
"Q  c #262123",
"!  c #451B08",
"~  c #591A00",
"^  c #461D14",
"/  c #4A0B00",
"(  c #4A240A",
")  c #552609",
"_  c #432414",
"`  c #432A1B",
"'  c #4B2D1C",
"]  c #482816",
"[  c #552B19",
"{  c #44331B",
"}  c #46361A",
"|  c #59361A",
" . c #692A07",
".. c #65361B",
"X. c #783918",
"o. c #692F0E",
"O. c #462C23",
"+. c #582C23",
"@. c #443325",
"#. c #4C3224",
"$. c #43342A",
"%. c #4A3929",
"&. c #543B23",
"*. c #5C3B24",
"=. c #543B2C",
"-. c #5C3D2A",
";. c #573425",
":. c #443B34",
">. c #4C3C32",
",. c #443835",
"<. c #543C33",
"1. c #422F31",
"2. c #623C2A",
"3. c #663A25",
"4. c #703C2D",
"5. c #621E00",
"6. c #5C4217",
"7. c #5C450A",
"8. c #664818",
"9. c #784619",
"0. c #785319",
"q. c #675014",
"w. c #4C4125",
"e. c #5B422D",
"r. c #564529",
"t. c #4D4338",
"y. c #544234",
"u. c #5A453A",
"i. c #584838",
"p. c #5E533A",
"a. c #6E4326",
"s. c #67462B",
"d. c #794727",
"f. c #7A5828",
"g. c #624A3B",
"h. c #694836",
"j. c #764B36",
"k. c #685439",
"l. c #7C5434",
"z. c #72523B",
"x. c #78563A",
"c. c #6B512E",
"v. c #7E603C",
"b. c #4A4441",
"n. c #574B43",
"m. c #5C5449",
"M. c #654D43",
"N. c #685648",
"B. c #7A5945",
"V. c #675C54",
"C. c #76554A",
"Z. c #7A634C",
"A. c #6C6358",
"S. c #766458",
"D. c #786A63",
"F. c #7C756C",
"G. c #843E16",
"H. c #87431A",
"J. c #984B1F",
"K. c #864B27",
"L. c #84572A",
"P. c #874D32",
"I. c #845B3B",
"U. c #885737",
"Y. c #975936",
"T. c #934F28",
"R. c #A15731",
"E. c #866239",
"W. c #99633D",
"Q. c #A1613D",
"!. c #875C44",
"~. c #995E43",
"^. c #885E52",
"/. c #856345",
"(. c #886649",
"). c #966747",
"_. c #876955",
"`. c #956C54",
"'. c #8B7558",
"]. c #987657",
"[. c #91724B",
"{. c #A56A49",
"}. c #A67757",
"|. c #AF7654",
" X c #887568",
".X c #967966",
"XX c #897B73",
"oX c #8A7469",
"OX c #A47D63",
"+X c #B67F60",
"@X c #A7855B",
"#X c #B8825E",
"$X c #9A8778",
"%X c #948470",
"&X c #A78967",
"*X c #B58C6C",
"=X c #A99577",
"-X c #B7977B",
";X c #AE9071",
":X c #AB9671",
">X c #C79472",
",X c #CCA57A",
"<X c #9A9288",
"1X c #938982",
"2X c #A69689",
"3X c #B69B86",
"4X c #A69790",
"5X c #BBA388",
"6X c #B7A595",
"7X c #A9A293",
"8X c #B9AEA5",
"9X c #C29B84",
"0X c #C5A689",
"qX c #C6AA96",
"wX c #CAB498",
"eX c #D6B798",
"rX c #D3B28F",
"tX c #E7B493",
"yX c #C7B8A9",
"uX c #D8BBA5",
"iX c #CCBDB4",
"pX c #CEB5A9",
"aX c #E2BDA5",
"sX c #D2C29C",
"dX c #D6C5A9",
"fX c #CCC4BB",
"gX c #D9C9B8",
"hX c #CDC0AF",
"jX c #E9D5B9",
"kX c #ECCFB0",
"lX c #FBE2BC",
"zX c #D7CCC4",
"xX c #DBD5C9",
"cX c #D3CECB",
"vX c #E6D7C9",
"bX c #F8DDC7",
"nX c #E7DED5",
"mX c #E0CFC8",
"MX c #FDE3CC",
"NX c #FBE2C6",
"BX c #EBE5D8",
"VX c #F3ECDC",
"CX c #FEECDC",
"ZX c #F9E7D6",
"AX c #FEF1DD",
"SX c #E9E1CB",
"DX c #ECE9E3",
"FX c #F4ECE4",
"GX c #FAECE4",
"HX c #FDF3E4",
"JX c #FDF4EB",
"KX c #FFFBEC",
"LX c #F7F5EA",
"PX c #FFFBF3",
"IX c #FEFDF9",
"UX c #FAF7F1",
/* pixels */
"9.K.d.9.K.0.L.0.0.0.q.0.9.0.9.9.d.8.8...| 6.| | &.&.} S S C Z N S C C C x V x k z j j j j j j j H j 0 0 0 0 = = = = - = = ; # # ",
"9.d.f.L.L.L.L.L.L.0.L.L.J.L.H.H.9.8...| | 6.8.r.| &.%.} S C D V C C C C V x z z l j j j j j H H l l l k k 8 l = 0 = = = # # = = ",
"9.K.K.L.L.E.L.E.L.f.L.E.L.K.0.q.8.6.6.| 6.| r.| &.| } { ` C C C N C C C V V V z k k l j j k H H n V G A b l = = ; ; = # # # - = ",
"d.K.P.L.L.E.E.E.E.E.E.E.E.I.L.d.c.c.6.6.6.r.| r.&.} { { { F ` C C C C c C x V z V c k k j l k V G G b b b l 8 8 0 ; - = = % - - ",
"d.K.K.L.I.).[.E.(./.Z././.(.(.(.x.k.c.p.r.r.r.w.} } F { F F x x c c C F c z V z V V n n n n n A A b u b A A m M u 8 > - - & & & ",
"9.0.f.U.).[./.x.s.e.*.=.y.i.g.u.k.g.r.i.c.p.r.r.w.w.} F { { c x x c c F C v V V k k n n A A A P P R $.,.t.T m - , y y > > - & & ",
"9.K.K.U.(./.s._ 0 5 1 4 7 s i i N N C G w.t.r.p.r.w.w.} } } } x c c c c c c F V n A A A A A K a P ,.b.n.:.U y - $ - - > > > : % ",
"9.d.d.U.(.l._ + + + + + # $ % +     # 0 V w.t.p.i.w.} } } } } v v c v v G c V V G Y R P L M > & % M E E K p p p   . % > > > - & ",
"9.9.d.W.l.] 5 $ $ # . . % % + % . # X . # l %.p.p.p.w.w.6.w.} v v v v v z c G G Y R :.A & + . . . o % % > p U ,.L p % . & > > % ",
"9.9.L.E.c.( 1 @ + + + . o < o % # # # # # 4 V %.p.p.r.w.w.w.} F } c c c v V A Y w.t.R > + + < y > p y > % % : p K p > - > > & & ",
"9.0.L.E.s.x 1 $ + # # % % % & & # $ $ $ # $ 4 9 p.i.p.p.r.w.@.F c H v c k l n Y $.T m $ . % g Q > y g < + o & > y y y u y > - > ",
"0.0.L.E.c.] 5 $ $ & > % % & > > $ 1 6 7 4 4 = $ H Y p.N.m.w.G k H j H G V l l G = 6 & # % > g g & < % % % % & & . % > u M u y 8 ",
"0.0.0.E.v.r.C 1 $ 6 6 & % & 6 $ 1 g d D D f 9 4 = V y.N.N.t.G V H j H G W l = = . # # $ y a L s p < % % > - % . . X # u b b > = ",
"H.0.0.E.(.k.&.l 6 i y % & s 9 4 w w f O.%.@.B 9 # 4 A Y Y A G n n l l n n l =   = # # & a 1.1.U p g % & y u %   # # = - b u = # ",
"0.0.0.v.E.v.r.O.9 a i 6 b S S 9 w w f ` #.O.d 2 + $ 4 9 b b b k l n h l n G n ; = # + $ L 1.1.L & > > g p p u y = - - 8 - 0 ; = ",
"0.0.0.f.v.k.s.&.B ` N i O.y.<.S w w w f I D 7 + @ = 8 n A A n j M n n l R m.n.W # . + $ f T L y > y Q Q u 6 8 8 @ = 8 0 0 = 8 l ",
"q.q.q.f.f.f.v.c.z.' w f O.M.u.g g s s g s g & g - b m A t.%X7X7X X<X%XP E <XF.m.P % # $ $ 6 6 # + y Z L Z N r B r w 5 e l 4 = = ",
"q.q.q.q.f.v.f.c.!.-.' _ ^ <.+.s g L Q g s > & p P K A t.%XgXSXgXgXzX7XN.D.8X<X%Xn.A # # + $ 6 $ % 6 6 9 d B #.-._ q t e e 0 = = ",
"7.7.q.q.0.f.v.f.!.4.-.' f f f g g L s g y - p T ,.n.V.$XfXLXHXSXvXnXcX4X1X1XA.A.A.T u #   + - # # $ 6 7 f ` =.h._ q w x l 0 = = ",
"7.7.q.q.q.c.f.x.s.3.2.+.w 3 g 2 g a L g y y K n.b.F.8XzXBXLXVXBXvXHXGXiX<XF.m.V.V.E m y # X # . + $ 6 i _ #.#.' x t 5 l l l ; 0 ",
"7.7.q.8.s.8.a.a...[ 3.;.^ w w 7 6 K m u p y U m.D.8XDXPXJXGXJXUXUXJXyX XV.V.A. XV.:.R K : * ; X % $ s f ` D f t q 5 4 4 0 = = ; ",
"7.8.7.8.q.8.8.| | ^ [ +.' f ^ w p m a M m b :.D.iXvXJXUXJXJXJXUXPXfXn.y I n.D.F.A.n.:.R , < : > 6 y s d f e r w e 5 4 0 0 ; ; ; ",
"6.8.7.8.a.8.| ) 3.( [ +.^ r r d Z M > 8 L $.V.<XnXZXGXGXGXGXGXnXUX6XZ p t.n.A.A.m.t.:.E J J J < > s d f f w ` ] _ x 9 0 j ; ; ; ",
"7.| 6.8.s.a.| ) a.3.*.;.^ r f B Z M - u R m.%XhXmXnXDXJXGXJXGXDXBX<X9 I i.I <.m.T U :.b.W J : o % y L O.` ` O.+.#.S n k l ; ; * ",
"s.6.} s.l.c...3.j.-.[ ] ' +.#.@.P : b P A S.6XyXgXvXCXCXZXGXFXBXGX<XN u.M.N i.N.V.y.u m E W J < p U 1.I I O.O._ B _ S V 0 * ; ; ",
"6.6.6.r.h.s.*.2.*.[ _ r _ ` ` ` m - u A %.S.3X6XeXuXvXZXCXZXZXGXnX$X>.Z.S.g.Z.Z.r.S 8 u R W J : > p i 9 f ` ` 5 w d S $.Y A h ; ",
"} r.s.e.-.2.2.2.O.] _ ] ' @.` S - % u $.i._.$X;X3X9XuXbXCXMXMXAXZX$XC.B.k.&.' 5 e 5 4 - Q W Q J : & % - f 1.O.d 5 9 N S Y A 8 * ",
"{ r.g.r.#.<.<.-.^ ` O.=.<.%.S i # % b t.y.e.j.(.OX+X9XkXNXNXMXMXbX$XZ.B.z./.c.[ ] _ N 6 & , Q < : < % - U <.y.=.` D B N b 0 ; ; ",
"S @.>.@.N O.u.<.w O.u.M.u.1.i $ p y L <.O.3 ( I.{.}.#XtXkXlXlXlXbX=X/.k.!.&XOX).h.s.=.S # : J * * * O   6 S >.<.M.g.<.O.8 $ 6 u ",
"t.A Z N 6 O.u.#.O.u.V.S.n.O.8 $ L L U <.2.+.a.|.W.).@X>XtXlXlXlXZXqXB.3.x.].).l.8.) -.%.u , W h * O X     $ i ` <.M.N.<.L 6 = 6 ",
"D.R u i 6 L <.I N.D.oXS.<.a y p L n.n.<.^.].`.}.E.W.{.@X,XkXlXlXNXdXc.a.].{.).U.) x e.N.>.E E J * * * X . + $ 7 ` #.g.M.>.a 6 @ ",
"<Xt.a m 6 D >.s  XXXXXV.L & > K E D.D.n.oX-X!.) L.E.W.[.*XkXlXlXbXlXx.l.*X(.j.| | [ Z.$XS.n.:.h O O O O X   + @ 7 L <.u.<.@.i 4 ",
"<Xn.u 8 9 4 S M.oXS.V.,.%   : O R V.$.y.%XD 5 1 q | s.j.OXaXNXMXMXaXh.!.OXh.+.5 B ` 5 %.t.b Y u : o O o o o % o & p P @.@.@.N e ",
"F.:.# = 8 9 @.N. XV.>.K o o J , n.i.I A.>.. @ N 5 r ' B.;XkXZXMXZXaX2.s._.+.r 5 B @ + 7 y.N.$.6 > ; O o o o o ; # M Y Y C N l 5 ",
"m.K # - b S p. X XV.,.- +   % K V.n.S V.2 9 M.g.N e ] C.qXMXHXCXAXlXB.h._.` 2 r =.e B @ 4 i.S A $ % & > : % o ; # K :.@.V 5 5 4 ",
"E h ; 8 P t.N. X_.V.O.1 & + + U  XN.#.e.@ w e.d &.r ` oXuXGXJXCXCXCX.Xz.Z.' 2 e u.%.#.7 2 N 4 d @ 1 i I Z 6 # + - P t.t.S 9 5 4 ",
"h * < , P :.m.S.S.M.d + @ + 1 y.] q _ -.-.5 =.Z.` 7 `  XiXCXHXHXZXAX5Xp.-.B 1 1 B f e <.u.^ g g B ] ' =.S 9 $ $ u R t.y.Y N 9 4 ",
"h * * M P T i.S.%Xg.2 + @ 1 f h._.!.!.s.(.! 2 t w N u.$XzXHXPXPXAXKXhXZ.#.x 5 5 w ` r C.M.w +.+.z.h.s.-.' w 4 4 9 $.i.i.$.V 4 1 ",
"J o o K R P y. X2X=.2 2 q [ h.B.(.(.l.| s.s.q 2 #.M.$XfXDXUXIXIXKXAXSX5XZ.r.=.e.#.;.<.+.^ 3 +.^.!.U.l.j.e.] r 0 9 %.N.n.@.b 4 4 ",
"K O   K U L n.XX.Xq + ! j.).OX}.|.U.P.)...[ q *.M.$XgXGXUXIXUXDXKXVXKXVX2XS.Z._.-.^ +.3 w +.+.C.U.P.P.!.I.2._ w 7 y.A.N.$.9 = 0 ",
"Q o , J & :.D.S.` 2 q j.}.*X>X+X>X~.X.....) ( ' _.gXJXPXIXIXIXUXPXVXVXLXSX5X%XZ.Z.{ t t ^ +.4.4.U.Y.|.}.).s.[ _ B y.u.y.>.A 6 4 ",
"W < , p > E N.y.;.] *.U.).{.|.{.|.|.{.Y...) ! [ 3XZXGXGXDXDXIXUXDXVXVXAXVXjX=XZ.Z.c.q t +.4.C.4.4.T.{.}.).j.*.#.=.g.u.>.T i $ 6 ",
"E , , p p >.n.#.+.#.j.`.{.~.Y.T.R.{.+X{.P...2.x.qXCXKXJXLXLXIXUXDXKXKXVXAXAXsX%X(._.! t +.+.4.o.o.G.T.Y.P.j.2.;.g.S.N.<.I i 4 9 ",
"b.K p M L n.V.M.<.2.!.}.{.~.P.K.G.Y.{.{.U.j.!.`.pXCXHXJXPXUXUXnXDXLXFXSXSXZXdX:X'.-X3.q +.+.+.^ ~ o.d.K.d.3.3.O.M._.S.M.%.D i i ",
"t.1.L a T V.XXXXOX^.^.).{.Q.R.T.G.K.P.P.P./.).'.kXCXZXBXDXDXDXnXnXDXDXFXVXvXdXdX-XeX_.[ +.^ ^ / ~ X.K.P.j.4.2.;.2.S. XV.y.O.a d ",
">.%.I D ,.S.2XpX2X`.`.}.|.{.Y.G.X.X.X.X.U.{.}..XdXAXHXJXLXBXnXcXcXcXBXIXKXSXjXdX5XeX;X2.^ ! 3 ^  .X.U.U.P.B.j.-.#.S.oXN.<.I i i ",
"$.>.1.1.u.oX2XpX.X_.`.}.~.P.X.5. . . .o.d.).`._.wXHXUXLXxX7X<X1X%X1X4XxXAXZXjXkXwX-X=X2.3 t 3 ^ 3.P.~.!.C.j.h.-.<.oXoXM.$.D 7 9 ",
"$.<.>.<.V.XX4XqX3X.X^.j.~ / ~ 5.~ 5.5.~ ..a.4.2.gXKXUXfXF.W h J J J :.$XgXAXMXjXwX&X-Xs.2 ^ 3 +.4.U.~.P.4.4.2.+.M.oXoXu.S i 9 i ",
"$.i.:.$.M A.$XhX6XZ.*.! ) X.5. . . . .X.d.j.4.<.iXPXJXF.J O W * J ; X ; %XAXKXCXbX3Xz.x t 3 3 ! ) o...4.j.+.+.+.<.C..X_.@.9 i Z ",
"I t.R b ; m.<XhXwXZ.*.) o.9.X.G.G.G.J.K.P.I.C.u.mXPXcXb.J < h h * * X O A.SXCXMXbX0Xh.t 3 3 t _ / ) ) | 4.4.+.+.4.^..X_.@.9 i i ",
"R b.p.; X p.6XzXhXk.' | o.4.H.X.G.G.H.Y.).`.]..XGXIXfX< o <   < O * O O m.xXCXZXbXqXj.q ! q ! [ ( ) ! ! ^ +.^ _ ^..X2XoX@.9 p 6 ",
"t.n.A.M X R fXHXgXr.' 3...P.P.H.G.G.J.Y.).OX3XqXUXJXcXJ   <   o O * O O N.vXCXbXuX-Xz.] [ 3.s.x.E./.s.t t ^ ^ ^ ^.3X0XOX%.7 d % ",
"t.b.A.K   M 8XIXyX=.' a.3.U.~.R.R.J.T.P.~.OX9XuXJXmXDXV.o < <   O X X # D.gXdX3XOX].z.*.z.`.OX-X0X0X%Xr.] x t ^ _.5XwX5Xi.4 m & ",
":.:.m.K   ,.zXUX6X<._ ;.3.P.~.~.R.J.H.R.~.}.9XuXUXvXIX6XU % <       > m S.6X.XC.B._.B.x.`.&X5XeXeXsX5XZ.&.t 2 q _.5XeX6Xk.4 f & ",
"U E n.E > <XUXFX8XN.` ! +.4.P.Q.J.G.H.Y.{.|.*X0XGXbXJXiXD.p g o . & Z I M.S.e.*.B.(.!./.OX-XrXeXsXsX=XZ.=.5 1 e '.0X0XwXZ.$ a & ",
"m E ,.E R cXIXnXiXoX=./ ^ P.P.~.J.G.J.Q.{.~.).].bXmXmXpX4X1.L a y a T D ` #.] s.j.!.I.E.*XrXeXkXlXdX=XN.#.5 1 ' :X5X3XqXS.@ a & ",
"U E K E 8XIXUXDXxXqXC.r ! ..d.4.X.R.>X>X#X|.`./.0XbXGXpXXXC.<.D s g g w 2 t [ x.(.l.l.`.&X-XrXkXdXlX=Xi.&.$ @ Z.=X-X5X:Xk.l & p ",
"p K b.1XDXIXDXSXcXiX.X-.t ! ..G.T.>XtX>X>X>X*X].3XrXqXoX<.f 3 @ @ 2 f O.+.;.s.x.l.c.l.}.-X,XrXeXsXdX$Xg.` 1 x '.:X=X:XD.w.; % y ",
"U Q A.cXDXDXBXDXzXyXqX'.! 3 ..d.).tXaX*X>XrX>X@XOX&X.X!.+.+.^ ^ ^ +.2.h.j.j.j.a...a.U.OX,XrXrX9XsX5X'.e.B x s.&X%X:X@Xr.9 + % > ",
"@.U XXcXnXcXxXBXmXyXdX5Xa.! d.U.~.rXtX*X9XtX-X@X].]..XOX`.!.C.!.C.C.C.4.s.d.3...o.4.!.OX0XeXeX3X:X%XN.&.B ' B.%X&X:X%XF + + > > ",
"L n.8XUXDXxXxXxXBXhXkXsX].d.E.U.(.qXeX0XsXrX:X:X].].&X*X}.!.j.j.j.4.3.[ +.4.a.o.o.d.!.].9XuXeX3X%Xk.-.| #.h._.`.@X%X(.} # $ , < ",
"$.$XBXIXLXBXBXSXSXhXdXsX&X(.I.a.[.5XwXuXkXsX@X@X].@X@X@XW.4.X.4.3...| ....d.d...4.j.!.}.*X0X9X*Xv.r.;.-.2.B._./.[.@Xv.{ $ & > < ",
"n.8XJXHXBXBXVXVXSXgXsXwX-X}.E.8.Z.$XsXsXsXrX:X:X@X@X@X{.U.d.d.d.3.....a.d.d.d.d.P.!.^.OXOXOX.X_.h.2.;.2.z.^.Z.v.Z.Z.k.c 6 & < < ",
"i.yXHXFXBXSXxXSXxXlXkXsXrX-X[.E.k.%X8XsXsXsXsX:X@X*X@XW.U.K.K.X.3.o...a.P.d.d.P.~.~.`.OX.X`.C.h.[ 3.3.2.x.Z.k.f.@Xv.c.F 7 & < < "
};
