/* XPM */
static char *_9854a77606f47cf83daf04994595d94cNXNEhDMOovUkxzz[] = {
/* columns rows colors chars-per-pixel */
"64 64 234 2 ",
"   c None",
".  c #0B0D0C",
"X  c #070909",
"o  c #140E09",
"O  c #150C07",
"+  c #0E100E",
"@  c #1C120B",
"#  c #13110E",
"$  c #0C0F13",
"%  c #090E19",
"&  c #0D1114",
"*  c #0D141D",
"=  c #121413",
"-  c #131619",
";  c #16191A",
":  c #1A1C1B",
">  c #191814",
",  c #24150C",
"<  c #27190E",
"1  c #2B1A0E",
"2  c #28170D",
"3  c #311D0E",
"4  c #231B14",
"5  c #2C1E13",
"6  c #241C19",
"7  c #341E12",
"8  c #1E201D",
"9  c #36210F",
"0  c #2B231B",
"q  c #2A2119",
"w  c #352113",
"e  c #3B2515",
"r  c #33241A",
"t  c #3B261A",
"y  c #3D2A1C",
"u  c #3A2A17",
"i  c #0F1722",
"p  c #121A25",
"a  c #1B1E21",
"s  c #141D2B",
"d  c #1E2123",
"f  c #18202F",
"g  c #1B2435",
"h  c #1E2639",
"j  c #232424",
"k  c #242629",
"l  c #25292B",
"z  c #2A2B2C",
"x  c #292826",
"c  c #3C2B22",
"v  c #362A27",
"b  c #3C3227",
"n  c #2D2E32",
"m  c #222A3C",
"M  c #262934",
"N  c #2E3134",
"B  c #2C3439",
"V  c #323334",
"C  c #34363B",
"Z  c #3A3A3C",
"A  c #37383A",
"S  c #2E312F",
"D  c #201F21",
"F  c #432A16",
"G  c #442C1B",
"H  c #4A2E1C",
"J  c #422516",
"K  c #4C321D",
"L  c #47311D",
"P  c #52351E",
"I  c #432E22",
"U  c #4A2E21",
"Y  c #4C3423",
"T  c #4B352A",
"R  c #463529",
"E  c #523423",
"W  c #543924",
"Q  c #5B3B24",
"!  c #543B2B",
"~  c #5B3B2B",
"^  c #573729",
"/  c #483A35",
"(  c #583E32",
")  c #572A23",
"_  c #643B2C",
"`  c #65342B",
"'  c #3E403E",
"]  c #5E432C",
"[  c #57412E",
"{  c #5D4333",
"}  c #58453A",
"|  c #4C4334",
" . c #63432D",
".. c #68462C",
"X. c #634433",
"o. c #664A33",
"O. c #6B4B34",
"+. c #6B4B3A",
"@. c #674838",
"#. c #714D34",
"$. c #724B3B",
"%. c #784937",
"&. c #6C5138",
"*. c #74533B",
"=. c #7B543C",
"-. c #765439",
";. c #74432F",
":. c #262E42",
">. c #2A3245",
",. c #2D3449",
"<. c #2E384D",
"1. c #363B47",
"2. c #333B54",
"3. c #373E58",
"4. c #2F3750",
"5. c #413E42",
"6. c #3D4145",
"7. c #3D434A",
"8. c #3A435D",
"9. c #3C4755",
"0. c #3B595E",
"q. c #3D635E",
"w. c #3D4661",
"e. c #3E4962",
"r. c #267962",
"t. c #434445",
"y. c #43454A",
"u. c #484A4B",
"i. c #584845",
"p. c #494D53",
"a. c #444A57",
"s. c #4B535B",
"d. c #4A5256",
"f. c #555858",
"g. c #51534E",
"h. c #674B45",
"j. c #745443",
"k. c #7B5544",
"l. c #7C5C42",
"z. c #7D5B4B",
"x. c #765546",
"c. c #795A55",
"v. c #67564E",
"b. c #4F6055",
"n. c #746957",
"m. c #434C64",
"M. c #444E69",
"N. c #4A5363",
"B. c #485469",
"V. c #545C66",
"C. c #4E5973",
"Z. c #4C5775",
"A. c #525D7A",
"S. c #525B75",
"D. c #59646A",
"F. c #5A6673",
"G. c #47676B",
"H. c #626D78",
"J. c #68747B",
"K. c #6E6D6E",
"L. c #83503D",
"P. c #835C43",
"I. c #845C4A",
"U. c #885946",
"Y. c #95564F",
"T. c #A55E53",
"R. c #846146",
"E. c #8A6246",
"W. c #8B644A",
"Q. c #8D694C",
"!. c #85634B",
"~. c #936A4D",
"^. c #9A6B4D",
"/. c #91644A",
"(. c #8A6653",
"). c #956C52",
"_. c #9A6D52",
"`. c #996A55",
"'. c #9D7253",
"]. c #99735A",
"[. c #867051",
"{. c #A36B56",
"}. c #A47454",
"|. c #AB7B5B",
" X c #A7775A",
".X c #B17D5C",
"XX c #A3714E",
"oX c #9E7965",
"OX c #8E6E64",
"+X c #A67A69",
"@X c #A77C75",
"#X c #B27F66",
"$X c #7B8676",
"%X c #B3825F",
"&X c #A9845F",
"*X c #938970",
"=X c #AA8464",
"-X c #B98768",
";X c #B98977",
":X c #B38F75",
">X c #89825F",
",X c #C3946E",
"<X c #5B6687",
"1X c #5F6E8D",
"2X c #67758C",
"3X c #A47587",
"4X c #7D8888",
"5X c #7B8B98",
"6X c #788BA8",
"7X c #828D89",
"8X c #889688",
"9X c #879899",
"0X c #879396",
"qX c #AC8395",
"wX c #97A596",
"eX c #8A9BA7",
"rX c #8A9CB5",
"tX c #8EA4B7",
"yX c #97A9AE",
"uX c #A9B8A8",
"iX c #A4B6B4",
"pX c #A5B29F",
"aX c #97ABC6",
"sX c #9DB3CA",
"dX c #A3B6C8",
"fX c #A6BBD4",
"gX c #B8C9DA",
"hX c #B1C3D2",
"jX c #BBCCE4",
"kX c #C2D2D9",
"lX c #C9D8EA",
"zX c #CFDDF1",
"xX c #D7E3F4",
"cX c #E8EFFA",
/* pixels */
"                              t.u.u.t.5.C n V j d a - * & - : d d d j k z z k M n V N                                           ",
"                            t.6.t.t.Z N z k k j : : : 8 d d k M N C 1.Z C C C V V N V N                                         ",
"                          u.A 1.A V M k j a j j l S N C A ' p.f.H.J.K.H.V.p.1.1.Z t.t.N                                         ",
"                          Z A V n j k z z z Z y.u.p.p.p.p.y.a.N.C.C.V.V.2X6X6X2Xp.u.f.N M                                       ",
"                        u.N N z x x x / g.D.b.q.d.D.$X4X$X4X5XsXjXaX5X5XaXxXxXdX0XD./ N j                                       ",
"                        / l z z V t.D.K.K.D.b.$X9XhXkXkXuXpXyXgXjXjXrX5XtXxXcXgXeX4Xt.z a                                       ",
"                      t.V x A t.D.D.D.2XeXtX5XwXiXlXzXkXuXuXyXfXzXjXrX6XrXlXcXfXeX7Xy.S a 8                                     ",
"                      Z x j V 5.A N H.dXsXjXyX8XwXhXzXhXuXuXwXhXzXsX6X3XrXlXxXgXeX7Xp.V j j                                     ",
"                    ' S 8 : x 0 k A 4XgXhXjXyX4XwXuXlXhXuXuXuXdXjXaX5X4XrXkXxXjXrX5Xd.V D :                                     ",
"                    A 0 ; = d : j ' 1XsXjXjX6X4X8XuXlXgXuXuXpXiXjXtX4X4X0XdXkXgXeX3Xf.z D >                                     ",
"                    S 8 ; & 8 ; 8 S e.aXfXjX6X4XwXiXlXhXpXwX8XJ.H.N.y.1.5.s.N.N.p.f.t.j : =                                     ",
"                    z 8 ; # = ; 8 g e.tXfXjXsX5X*X7X$XD.g.A n k k k k n n C C V M k : : = =                                     ",
"                  N j : 8 + = = ; d 7.rXtX5X$X7.' S l f k k z z n N V C 5.5.1.k k : = = # #                                     ",
"                  z 0 : > + + = & - m N.0.g s a d f l S z j j d j D : a a M k a - = . = : ;                                     ",
"                  j d : > . . . & + - * % * a 8 8 8 ; ; = = = - = - - - - - ; - ; - : j n S V                                   ",
"                  8 0 ; # . X X & X X + * - * & & & 8 - $ & & & = = - ; ; a a k z x j z z k S                                   ",
"                  8 8 + . X X X . + + + + . . . . + = = ; : a d k j l l N M B 6.6.7.7.p.f.f.b.D.                                ",
"                  8 + . . X X X . . X X X . . $ & : d k l l z B 6.9.p.s.V.F.F.F.H.H.J.J.H.F.D.D.f.                              ",
"                  8 + . . + + + X . + + + = & 8 d d z Z 7.d.V.V.D.F.F.F.F.C.N.s.9.6.' B S l z z V                               ",
"                  8 = . . . > # # + + > 8 d B 6.a.d.V.V.D.D.V.N.9.1.C z k q 6 4 q 0 c y q 0 |                                   ",
"                  0 8 8 + - 8 ; : : k B 7.d.d.G.V.N.N.a.1.N k 6 q q c I T T U U L ^ X.+.! b                                     ",
"                  z 8 8 8 0 8 z Z 7.p.s.N.B.d.9.1.k : > 4 5 t U T W _ ( ! E U H Y { *.x.j.T                                     ",
"                    0 8 + z u.u.p.d.d.7.>.l : > 4 < 7 e J I U T ! ~ { ^ ) E E E ! +.j.l.!./                                     ",
"                      q + # z S z k > > 4 5 w e 7 e t t G U R ^ ~ _ ( ^ ^ ^ ^ ^ X.j.x.I.).v.                                    ",
"                      b > o @ o + # @ w t t y J u e 7 J I ) ) ~ ~ _ _ _ _ _ X.$.+.h.} z.].                                      ",
"                      v 4 > > @ @ @ w y L J G u u G G U ^ ^ ^ _ X.@.$.$.h.$.k.z.h.R c +.oX                                      ",
"                      r 4 4 > q q u L U G L G J e J U ~ _ j.$.$.j.j.k.j.k.I.I.h.R r c h.(.&.                                    ",
"                      / y q > q r T [ W Y Y U J t I T @.j.x.U.I.U.I.Y.k.I.x.! t c } j.z.!.h.                                    ",
"                      x.&.T q 0 q ] O. .~ W Y t 7 7 c ^ ( h.z.(.(.I.Y.U.x.( v 7 I U +.(.].OX                                    ",
"                      #. .*.y q 0 ! *.O.X. .H r r 6 5 7 5 r ^ k.P.P.(.=.h.I @ x i.U @.(.OXn.K.                                  ",
"                      ;.;.k.I q b b [ O.+.X.Y I I T T v r t t ( @.k.U.j._ t > v i.T | i.g./ S                                   ",
"                      %.U.Q.! q y b b ! O.X.E T ^ c 6 = v I 7 U _ _ k.h.^ t x v | c.OX=XK.7.z                                   ",
"                      L.U.=.W 5 y } { R ! o.~ H 7 5 = = v v 7 6 7 I I 6 6 / i.x.c.OX@X-X$Xr.                                    ",
"                      Q.P._ H q 0 &.l.&.R 0 c q v b T T T T / / v = o = ( h.h.h.I.OX+XqX8Xr.                                    ",
"                        E.=.-.y 0 o.R.R.+.4 = [ X.@.@.@.( ^ ( h./ 6 ) t ( I.c.(.OX+X#XqX*Xp.                                    ",
"                        ~./.'.! q ] R.!.P.o.v o.+.@.X._ ^ ^ h.h.M I `.k.( T.+X@X+X+X-X,X;Xg.                                    ",
"                        ^.W.'.[ w [ R.Q.W.=.! *.=.k.$.#...-.U.c.j +..XXXh.+X#X;X;X@X#X;X:Xv.                                    ",
"                        [.'.}.[ u o.R.Q.~.~.@.W.W.W.W.P.U.^.}.c.v U..X.Xk.`.#X;X;X;X;XqXOXn.h.                                  ",
"                          ].&X..L &.Q.Q.^.~.$.W.{.3X@X^.XX|. Xx.U ^..X%X{.h.+X+X+XoXOX(.*XoX}                                   ",
"                          &X}.&.R &.Q.Q./.).k.~.+XqX@X{.}.#X].@.O.^.-X-X-Xx.@.x.x.z.).=X:X].[                                   ",
"                          *X&X-.W &.Q.Q.~.^.R.-.OXqX3X'.].(.X.E P.^.-X,X,X`.U.T.{. X#X,X-XoX@.                                  ",
"                          >X&Xl.L o.E.~.E.~.).R.j.c.x.+.@.X. .=.~.XX,X,X-X-X.X X.X.X-X,X:X[.&.                                  ",
"                            [.&.L ] l.E.R.Q.).).~._.~././.U.L.}..X}..X%X-X#X#X X.X%X,X,X:Xj.]                                   ",
"                              | u [ -.l.R.Q.~.).^.XX X|.}._.Q._.^.U.{.|. XU.`.}..X%X,X;X=X&.W                                   ",
"                                u K &.l.R.R.~._.}.&X%X%X%X}.'.-.` Q +.k.k.k.}.#X.X.X-X-X=Xo.!                                   ",
"                                u u ] -.l.l.Q.~.'.|.%X|.|.}.|.~.+.O.X.X.+.$.).|..X.X=X-X].] [                                   ",
"                                u u [ &.-.l.R.~.~.}.|.|.XXXXXX'.+.O. .K W _ ..L./.^.=X=X[.! [                                   ",
"                                u 9 L o.&.-.l.R.Q.'.|.}.~.R.-...F P K Y H F E Q #.L.'.+Xj.W T                                   ",
"                              q.b 9 F [ ..&.-.l.[.~.'.XXE...P F 3 F ) ` Q K K K Q ..L.Q.+.^ ^                                   ",
"                          q.q.9.A 9 9 F P ..&.l.R.Q.'.E...P F 9 3 J ` Y.%.) P ) P Q #.O.( ! /                                   ",
"                      G.0.8.2.2.Z 9 3 9 F W &.l.l.Q.'.&.F F F e 7 J ) ` ` ` ) ^ K P _ ] Y R f.N.                                ",
"                    G.B.<.2.4.,.i.e 1 9 u K ] &.-.l.E.] F F F F ) ` ;.L.Y.Y.U.W...P Q P L c i.S.                                ",
"                    Z.e.:.:.>.9.[.I < 1 9 u [ ] &.-.-.P u F ..=.L.Y.T.T.{.T.{.{.=.Q P P t R y.M.a.                              ",
"                B.e.7.e.>.B b.>X&X[ 1 , < 9 u P W ....F F ..E.XXXX^.U.;.%./.^.E.-.Q F F R / 5.5.M.C.Z.M.                        ",
"    B.B.a.9.B.M.9.w.<.:.6.$X*X,X&Xo.9 , < 1 e u u K P u F #.E.^.~.=.X.E ..-.P.-...K F P ^ i.1.3.m.1X1X1X<XA.N.                  ",
"  S.A.B.M.B.>.>.8.<.7.B m D.:X,X&X-.e , @ < 1 9 u u L u P -.E.E.P.O._ H P #.-...] L 9 F R i.5.3.8.A.1X1X1X1X1XA.N.              ",
"e.w.8.w.e.0.:.s m 9.,.,.h B n.:X&XQ.K , @ , @ 1 w w G 9 K -.=.-.-.#.] L P ..#.] P F e e G | 5.3.4.e.Z.<XZ.<X<X<X<XS.            ",
",.m m :.<.9.>.h s g ,.,.m f M n.=X[.] w @ @ @ @ < 1 e 9 F O.#.#.#.#.o.P P ] #.P H e 3 7 I 5.1.:.4.8.e.Z.w.e.e.Z.S.<XS.m.        ",
"f p i s g h m h s s g :.:.g p M z.'.=.G 3 @ o o > < 9 3 u P  . .......P K ~ ..P e e 7 t y / ,.:.:.4.e.e.w.w.w.w.m.M.A.<XN.      ",
"i & % i s g h h g p p f B M p p z z.P.X.u @ o O @ @ , 1 9 F P P Q  .] P L W P K w 7 7 7 R v >.g :.4.e.e.w.w.3.8.3.8.M.Z.A.N.    ",
"% % * p s s s f f f i p s g s * * v k.L.L @ O O O O 1 < @ 1 e F K W E K G G G t 7 2 7 7 c M m s h :.w.w.w.w.8.3.3.3.8.m.Z.S.    ",
"p M >.>.h s i s f f * * p s s p - i v ` Q < @ O O @ < , O @ 1 9 e e F G u e w w 7 , 7 I I M h i s :.M.e.3.w.w.8.3.3.3.8.m.Z.B.  ",
",.,.>.:.m h g g g g s * i i s i * % * t ` 9 < @ O @ @ O O O , 1 2 1 7 3 5 5 1 2 , , 7 t v m g % s h ,.w.3.8.w.3.3.3.3.3.3.M.Z.a.",
"i % i i p s s s s s f p % * - p * * % = 7 J 2 @ @ O @ O @ O , 2 , , 2 , , < 5 2 , 2 J 7 6 h s % s g g 3.w.3.8.w.3.3.2.3.3.8.M.m."
};
